<mxfile host="app.diagrams.net" agent="Mozilla/5.0 (Windows NT 10.0; Win64; x64) AppleWebKit/537.36 (KHTML, like Gecko) Chrome/140.0.0.0 Safari/537.36" version="28.2.5">
  <diagram name="Página-1" id="wzNvjxZq4L55FMzk-5zb">
    <mxGraphModel dx="749" dy="525" grid="1" gridSize="10" guides="1" tooltips="1" connect="1" arrows="1" fold="1" page="1" pageScale="1" pageWidth="827" pageHeight="1169" math="0" shadow="0">
      <root>
        <mxCell id="0" />
        <mxCell id="1" parent="0" />
        <mxCell id="mNL_Matmd7xXm6e0I7zA-6" style="edgeStyle=none;curved=1;rounded=0;orthogonalLoop=1;jettySize=auto;html=1;exitX=0.5;exitY=1;exitDx=0;exitDy=0;entryX=0.5;entryY=0;entryDx=0;entryDy=0;fontSize=12;startSize=8;endSize=8;" edge="1" parent="1" source="mNL_Matmd7xXm6e0I7zA-2" target="mNL_Matmd7xXm6e0I7zA-4">
          <mxGeometry relative="1" as="geometry" />
        </mxCell>
        <mxCell id="mNL_Matmd7xXm6e0I7zA-2" value="entrada de usuario" style="rounded=1;whiteSpace=wrap;html=1;" vertex="1" parent="1">
          <mxGeometry x="730" y="770" width="120" height="60" as="geometry" />
        </mxCell>
        <mxCell id="mNL_Matmd7xXm6e0I7zA-7" style="edgeStyle=none;curved=1;rounded=0;orthogonalLoop=1;jettySize=auto;html=1;exitX=0.5;exitY=1;exitDx=0;exitDy=0;entryX=0.5;entryY=0;entryDx=0;entryDy=0;fontSize=12;startSize=8;endSize=8;" edge="1" parent="1" source="mNL_Matmd7xXm6e0I7zA-4" target="mNL_Matmd7xXm6e0I7zA-5">
          <mxGeometry relative="1" as="geometry" />
        </mxCell>
        <mxCell id="mNL_Matmd7xXm6e0I7zA-4" value="procesador de consulta" style="whiteSpace=wrap;html=1;" vertex="1" parent="1">
          <mxGeometry x="730" y="860" width="120" height="60" as="geometry" />
        </mxCell>
        <mxCell id="mNL_Matmd7xXm6e0I7zA-8" value="" style="edgeStyle=none;curved=1;rounded=0;orthogonalLoop=1;jettySize=auto;exitX=1;exitY=0.5;exitDx=0;exitDy=0;fontSize=12;startSize=8;endSize=8;textDirection=ltr;html=1;fontStyle=0;fontFamily=Helvetica;entryX=0;entryY=0.5;entryDx=0;entryDy=0;" edge="1" parent="1" source="mNL_Matmd7xXm6e0I7zA-5" target="mNL_Matmd7xXm6e0I7zA-11">
          <mxGeometry relative="1" as="geometry">
            <mxPoint x="880" y="1000" as="targetPoint" />
          </mxGeometry>
        </mxCell>
        <mxCell id="mNL_Matmd7xXm6e0I7zA-12" style="edgeStyle=orthogonalEdgeStyle;rounded=0;orthogonalLoop=1;jettySize=auto;html=1;exitX=0;exitY=0.5;exitDx=0;exitDy=0;fontSize=12;startSize=8;endSize=8;entryX=0.5;entryY=0;entryDx=0;entryDy=0;" edge="1" parent="1" source="mNL_Matmd7xXm6e0I7zA-5" target="mNL_Matmd7xXm6e0I7zA-15">
          <mxGeometry relative="1" as="geometry">
            <mxPoint x="600" y="1200" as="targetPoint" />
          </mxGeometry>
        </mxCell>
        <mxCell id="mNL_Matmd7xXm6e0I7zA-19" style="edgeStyle=none;curved=1;rounded=0;orthogonalLoop=1;jettySize=auto;html=1;exitX=0.5;exitY=1;exitDx=0;exitDy=0;entryX=0.5;entryY=0;entryDx=0;entryDy=0;fontSize=12;startSize=8;endSize=8;" edge="1" parent="1" source="mNL_Matmd7xXm6e0I7zA-5" target="mNL_Matmd7xXm6e0I7zA-18">
          <mxGeometry relative="1" as="geometry" />
        </mxCell>
        <mxCell id="mNL_Matmd7xXm6e0I7zA-5" value="verificador de existencia" style="rhombus;whiteSpace=wrap;html=1;" vertex="1" parent="1">
          <mxGeometry x="740" y="950" width="100" height="100" as="geometry" />
        </mxCell>
        <mxCell id="mNL_Matmd7xXm6e0I7zA-9" value="consulta bd" style="text;html=1;align=center;verticalAlign=middle;resizable=0;points=[];autosize=1;strokeColor=none;fillColor=none;fontSize=10;" vertex="1" parent="1">
          <mxGeometry x="830" y="970" width="70" height="30" as="geometry" />
        </mxCell>
        <mxCell id="mNL_Matmd7xXm6e0I7zA-11" value="base de datos&lt;div&gt;(BD)&lt;/div&gt;" style="whiteSpace=wrap;html=1;" vertex="1" parent="1">
          <mxGeometry x="900" y="970" width="120" height="60" as="geometry" />
        </mxCell>
        <mxCell id="mNL_Matmd7xXm6e0I7zA-13" value="no existe" style="text;html=1;align=center;verticalAlign=middle;resizable=0;points=[];autosize=1;strokeColor=none;fillColor=none;fontSize=10;" vertex="1" parent="1">
          <mxGeometry x="594" y="1011" width="60" height="30" as="geometry" />
        </mxCell>
        <mxCell id="mNL_Matmd7xXm6e0I7zA-14" value="no tiene respuesta" style="text;html=1;align=center;verticalAlign=middle;resizable=0;points=[];autosize=1;strokeColor=none;fillColor=none;fontSize=10;" vertex="1" parent="1">
          <mxGeometry x="594" y="1130" width="110" height="30" as="geometry" />
        </mxCell>
        <mxCell id="mNL_Matmd7xXm6e0I7zA-15" value="generador de mensaje&lt;div&gt;&quot;muestra el menú&quot;&lt;/div&gt;" style="whiteSpace=wrap;html=1;" vertex="1" parent="1">
          <mxGeometry x="540" y="1210" width="120" height="60" as="geometry" />
        </mxCell>
        <mxCell id="mNL_Matmd7xXm6e0I7zA-21" style="edgeStyle=orthogonalEdgeStyle;rounded=0;orthogonalLoop=1;jettySize=auto;html=1;exitX=1;exitY=0.5;exitDx=0;exitDy=0;fontSize=12;startSize=8;endSize=8;entryX=0.5;entryY=1;entryDx=0;entryDy=0;" edge="1" parent="1" source="mNL_Matmd7xXm6e0I7zA-18" target="mNL_Matmd7xXm6e0I7zA-11">
          <mxGeometry relative="1" as="geometry">
            <mxPoint x="960" y="1140" as="targetPoint" />
          </mxGeometry>
        </mxCell>
        <mxCell id="mNL_Matmd7xXm6e0I7zA-18" value="verificador de respuesta" style="rhombus;whiteSpace=wrap;html=1;" vertex="1" parent="1">
          <mxGeometry x="740" y="1095" width="100" height="100" as="geometry" />
        </mxCell>
        <mxCell id="mNL_Matmd7xXm6e0I7zA-20" value="no" style="text;html=1;align=center;verticalAlign=middle;resizable=0;points=[];autosize=1;strokeColor=none;fillColor=none;fontSize=16;" vertex="1" parent="1">
          <mxGeometry x="787" y="1050" width="40" height="30" as="geometry" />
        </mxCell>
        <mxCell id="mNL_Matmd7xXm6e0I7zA-22" value="consulta bd" style="text;html=1;align=center;verticalAlign=middle;resizable=0;points=[];autosize=1;strokeColor=none;fillColor=none;fontSize=10;" vertex="1" parent="1">
          <mxGeometry x="890" y="1111" width="70" height="30" as="geometry" />
        </mxCell>
        <mxCell id="mNL_Matmd7xXm6e0I7zA-23" value="" style="edgeStyle=none;orthogonalLoop=1;jettySize=auto;html=1;rounded=0;fontSize=12;startSize=8;endSize=8;curved=1;" edge="1" parent="1">
          <mxGeometry width="140" relative="1" as="geometry">
            <mxPoint x="900" y="1150" as="sourcePoint" />
            <mxPoint x="900" y="1210" as="targetPoint" />
            <Array as="points" />
          </mxGeometry>
        </mxCell>
        <mxCell id="mNL_Matmd7xXm6e0I7zA-24" value="si" style="text;html=1;align=center;verticalAlign=middle;resizable=0;points=[];autosize=1;strokeColor=none;fillColor=none;fontSize=16;" vertex="1" parent="1">
          <mxGeometry x="894" y="1161" width="40" height="30" as="geometry" />
        </mxCell>
        <mxCell id="mNL_Matmd7xXm6e0I7zA-25" value="generador de respuesta" style="whiteSpace=wrap;html=1;" vertex="1" parent="1">
          <mxGeometry x="840" y="1210" width="120" height="60" as="geometry" />
        </mxCell>
        <mxCell id="mNL_Matmd7xXm6e0I7zA-26" value="" style="edgeStyle=none;orthogonalLoop=1;jettySize=auto;html=1;rounded=0;fontSize=12;startSize=8;endSize=8;curved=1;entryX=0;entryY=0.5;entryDx=0;entryDy=0;endArrow=none;endFill=0;" edge="1" parent="1" target="mNL_Matmd7xXm6e0I7zA-18">
          <mxGeometry width="140" relative="1" as="geometry">
            <mxPoint x="700" y="1145" as="sourcePoint" />
            <mxPoint x="760" y="1100" as="targetPoint" />
            <Array as="points" />
          </mxGeometry>
        </mxCell>
        <mxCell id="mNL_Matmd7xXm6e0I7zA-27" value="" style="edgeStyle=orthogonalEdgeStyle;orthogonalLoop=1;jettySize=auto;html=1;rounded=0;fontSize=12;startSize=8;endSize=8;endArrow=none;endFill=0;exitX=0.5;exitY=1;exitDx=0;exitDy=0;entryX=0.5;entryY=1;entryDx=0;entryDy=0;" edge="1" parent="1" source="mNL_Matmd7xXm6e0I7zA-15" target="mNL_Matmd7xXm6e0I7zA-25">
          <mxGeometry width="140" relative="1" as="geometry">
            <mxPoint x="620" y="1100" as="sourcePoint" />
            <mxPoint x="760" y="1100" as="targetPoint" />
          </mxGeometry>
        </mxCell>
        <mxCell id="mNL_Matmd7xXm6e0I7zA-28" value="" style="edgeStyle=none;orthogonalLoop=1;jettySize=auto;html=1;rounded=0;fontSize=12;startSize=8;endSize=8;curved=1;" edge="1" parent="1">
          <mxGeometry width="140" relative="1" as="geometry">
            <mxPoint x="770" y="1290" as="sourcePoint" />
            <mxPoint x="770" y="1320" as="targetPoint" />
            <Array as="points" />
          </mxGeometry>
        </mxCell>
        <mxCell id="mNL_Matmd7xXm6e0I7zA-29" value="salida al usuario" style="rounded=1;whiteSpace=wrap;html=1;" vertex="1" parent="1">
          <mxGeometry x="710" y="1320" width="120" height="60" as="geometry" />
        </mxCell>
      </root>
    </mxGraphModel>
  </diagram>
</mxfile>
